#N canvas 50 272 450 300 10;
#X obj 124 107 inlet~;
#X obj 180 197 *~;
#X obj 198 107 inlet;
#X obj 124 197 *~;
#X obj 291 134 >= 0;
#X obj 384 134 <= 1;
#X obj 124 218 outlet~;
#X obj 180 218 outlet~;
#X obj 198 176 expr 1 - $f1;
#X obj 198 155 expr -($f1 * $f2 * $f3) + 1;
#X connect 0 0 3 0;
#X connect 0 0 1 0;
#X connect 1 0 7 0;
#X connect 2 0 4 0;
#X connect 2 0 5 0;
#X connect 2 0 9 0;
#X connect 3 0 6 0;
#X connect 4 0 9 1;
#X connect 5 0 9 2;
#X connect 8 0 1 1;
#X connect 9 0 3 1;
#X connect 9 0 8 0;
