#N canvas 129 57 866 553 10;
#N canvas 472 413 919 453 microphone 1;
#N canvas 179 451 826 390 reverb 0;
#X obj 197 212 freeverb~;
#N canvas 1 80 450 300 inv 0;
#X obj 154 69 inlet;
#X obj 154 179 outlet;
#X msg 154 124 1;
#X obj 154 97 t b f;
#X obj 154 151 -;
#X connect 0 0 3 0;
#X connect 2 0 4 0;
#X connect 3 0 2 0;
#X connect 3 1 4 1;
#X connect 4 0 1 0;
#X restore 583 194 pd inv;
#X floatatom 637 206 5 0 0 0 - - -, f 5;
#X floatatom 535 174 5 0 0 0 - - -, f 5;
#X obj 198 280 outlet~;
#X msg 583 228 \; reverb_value dry \$1;
#X msg 528 272 \; reverb_value wet \$1;
#X obj 36 195 receive reverb_value;
#X obj 197 145 inlet~;
#X obj 288 158 dbtorms;
#X msg 288 112 12;
#X obj 288 135 expr (100 - $f1);
#X obj 288 88 loadbang;
#X text 323 110 Reduce sound by 12 dB;
#X obj 527 94 inlet;
#X obj 527 137 t f f;
#X obj 197 176 *~;
#X connect 0 0 4 0;
#X connect 0 1 4 0;
#X connect 1 0 5 0;
#X connect 1 0 2 0;
#X connect 7 0 0 0;
#X connect 8 0 16 0;
#X connect 9 0 16 1;
#X connect 10 0 11 0;
#X connect 11 0 9 0;
#X connect 12 0 10 0;
#X connect 14 0 15 0;
#X connect 15 0 6 0;
#X connect 15 0 3 0;
#X connect 15 1 1 0;
#X connect 16 0 0 0;
#X connect 16 0 0 1;
#X restore 194 280 pd reverb;
#N canvas 207 303 742 539 pitch 0;
#X floatatom 19 87 0 0 0 0 - - -;
#X obj 81 361 *~;
#X obj 205 295 line~;
#X floatatom 237 112 0 0 0 0 - - -;
#X text 68 9 PITCH SHIFTER;
#X obj 205 269 pack 0 200;
#X obj 237 86 r window;
#X obj 19 61 r transpose;
#X obj 19 143 exp;
#X floatatom 19 169 6 0 0 0 - - -, f 6;
#X obj 19 259 /;
#X obj 146 189 * 0.001;
#X obj 19 410 cos~;
#X obj 19 437 *~;
#X obj 19 466 +~;
#X obj 106 317 wrap~;
#X obj 251 360 *~;
#X obj 188 420 cos~;
#X obj 188 447 *~;
#X obj 146 216 t b f;
#X floatatom 19 285 6 0 0 0 - - -, f 6;
#X obj 106 290 +~ 0.5;
#X obj 19 358 -~ 0.5;
#X obj 19 384 *~ 0.5;
#X obj 188 359 -~ 0.5;
#X obj 188 392 *~ 0.5;
#X obj 19 196 - 1;
#X obj 19 117 * 0.05776;
#X obj 19 222 * -1;
#X text 53 86 <-- transposition;
#X text 96 99 (halftones);
#X text 82 163 speed;
#X text 81 177 change;
#X text 281 111 <--window (msec);
#X text 54 252 tape head;
#X obj 19 316 phasor~;
#X obj 237 139 max 1;
#X text 55 265 rotation freq;
#X obj 82 410 vd~ G09-del;
#X obj 251 422 vd~ G09-del;
#X obj 326 186 inlet~;
#X obj 19 493 outlet~;
#X obj 325 217 delwrite~ G09-del 5000;
#X obj 488 186 inlet;
#X obj 488 333 s transpose;
#X obj 513 210 route 0;
#X obj 513 308 send window \$1;
#X msg 552 256 100;
#X msg 513 257 0;
#X connect 0 0 27 0;
#X connect 1 0 38 0;
#X connect 2 0 1 1;
#X connect 2 0 16 1;
#X connect 3 0 36 0;
#X connect 5 0 2 0;
#X connect 6 0 3 0;
#X connect 7 0 0 0;
#X connect 8 0 9 0;
#X connect 9 0 26 0;
#X connect 10 0 20 0;
#X connect 11 0 19 0;
#X connect 12 0 13 0;
#X connect 13 0 14 0;
#X connect 14 0 41 0;
#X connect 15 0 16 0;
#X connect 15 0 24 0;
#X connect 16 0 39 0;
#X connect 17 0 18 0;
#X connect 18 0 14 1;
#X connect 19 0 10 0;
#X connect 19 1 10 1;
#X connect 20 0 35 0;
#X connect 21 0 15 0;
#X connect 22 0 23 0;
#X connect 23 0 12 0;
#X connect 24 0 25 0;
#X connect 25 0 17 0;
#X connect 26 0 28 0;
#X connect 27 0 8 0;
#X connect 28 0 10 0;
#X connect 35 0 1 0;
#X connect 35 0 22 0;
#X connect 35 0 21 0;
#X connect 36 0 11 0;
#X connect 36 0 5 0;
#X connect 38 0 13 1;
#X connect 39 0 18 1;
#X connect 40 0 42 0;
#X connect 43 0 44 0;
#X connect 43 0 45 0;
#X connect 45 0 48 0;
#X connect 45 1 47 0;
#X connect 47 0 46 0;
#X connect 48 0 46 0;
#X restore 194 235 pd pitch;
#X obj 475 278 hsl 150 20 -5 5 0 0 empty empty Pitch 0 -8 0 10 -262144
-1 -1 7450 1;
#X obj 364 261 receive pitch;
#X obj 357 312 receive reverb;
#X obj 474 329 hsl 150 20 0 1 0 0 empty empty Reverb 0 -8 0 10 -262144
-1 -1 3725 1;
#X text 475 332 dry;
#X text 598 332 wet;
#X obj 120 94 inlet~;
#X obj 120 303 outlet~;
#X obj 612 260 tgl 15 0 empty empty empty 17 7 0 10 -262144 -1 -1 0
1;
#X obj 611 311 tgl 15 0 empty empty empty 17 7 0 10 -262144 -1 -1 0
1;
#N canvas 318 205 528 349 sound_detector 0;
#X obj 312 133 env~;
#X obj 207 29 inlet~;
#X obj 83 240 outlet~;
#X obj 83 214 *~;
#X obj 207 62 send~ sound;
#X obj 85 94 receive~ sound;
#X obj 312 96 receive~ sound;
#X floatatom 312 183 3 0 0 0 - - -, f 3;
#X obj 312 157 int \$1;
#X obj 312 224 moses;
#X obj 360 199 hsl 128 15 0 127 0 0 empty empty empty -2 -8 0 10 -262144
-1 -1 6000 1;
#X floatatom 379 227 3 0 0 0 - - -, f 3;
#X obj 100 121 receive volume_level;
#X obj 101 174 line 0 1000;
#X floatatom 116 214 5 0 0 0 - - -, f 5;
#X msg 100 149 \$1 \$2;
#X msg 339 250 \; volume_level 1 100 \;;
#X msg 312 288 \; volume_level 0 20 \;;
#X obj 357 172 receive noise_detect;
#X connect 0 0 8 0;
#X connect 1 0 4 0;
#X connect 3 0 2 0;
#X connect 5 0 3 0;
#X connect 6 0 0 0;
#X connect 7 0 9 0;
#X connect 8 0 7 0;
#X connect 9 0 17 0;
#X connect 9 1 16 0;
#X connect 10 0 9 1;
#X connect 10 0 11 0;
#X connect 12 0 15 0;
#X connect 13 0 3 1;
#X connect 13 0 14 0;
#X connect 15 0 13 0;
#X connect 18 0 10 0;
#X restore 120 117 pd sound_detector;
#X obj 644 243 receive pitch_activate;
#X obj 644 294 receive reverb_activate;
#X obj 120 258 audioroute~;
#X obj 120 212 audioroute~;
#N canvas 0 22 700 351 echo 0;
#X obj 89 203 inlet~;
#X obj 143 233 *~ 0.5;
#N canvas 0 22 450 278 (subpatch) 0;
#X array delaysound 500 float 3;
#A 0 0 0 0 0 0 0 0 0 0 0 0 0 0 0 0 0 0 0 0 0 0 0 0 0 0 0 0 0 0 0 0
0 0 0 0 0 0 0 0 0 0 0 0 0 0 0 0 0 0 0 0 0 0 0 0 0 0 0 0 0 0 0 0 0 0
0 0 0 0 0 0 0 0 0 0 0 0 0 0 0 0 0 0 0 0 0 0 0 0 0 0 0 0 0 0 0 0 0 0
0 0 0 0 0 0 0 0 0 0 0 0 0 0 0 0 0 0 0 0 0 0 0 0 0 0 0 0 0 0 0 0 0 0
0 0 0 0 0 0 0 0 0 0 0 0 0 0 0 0 0 0 0 0 0 0 0 0 0 0 0 0 0 0 0 0 0 0
0 0 0 0 0 0 0 0 0 0 0 0 0 0 0 0 0 0 0 0 0 0 0 0 0 0 0 0 0 0 0 0 0 0
0 0 0 0 0 0 0 0 0 0 0 0 0 0 0 0 0 0 0 0 0 0 0 0 0 0 0 0 0 0 0 0 0 0
0 0 0 0 0 0 0 0 0 0 0 0 0 0 0 0 0 0 0 0 0 0 0 0 0 0 0 0 0 0 0 0 0 0
0 0 0 0 0 0 0 0 0 0 0 0 0 0 0 0 0 0 0 0 0 0 0 0 0 0 0 0 0 0 0 0 0 0
0 0 0 0 0 0 0 0 0 0 0 0 0 0 0 0 0 0 0 0 0 0 0 0 0 0 0 0 0 0 0 0 0 0
0 0 0 0 0 0 0 0 0 0 0 0 0 0 0 0 0 0 0 0 0 0 0 0 0 0 0 0 0 0 0 0 0 0
0 0 0 0 0 0 0 0 0 0 0 0 0 0 0 0 0 0 0 0 0 0 0 0 0 0 0 0 0 0 0 0 0 0
0 0 0 0 0 0 0 0 0 0 0 0 0 0 0 0 0 0 0 0 0 0 0 0 0 0 0 0 0 0 0 0 0 0
0 0 0 0 0 0 0 0 0 0 0 0 0 0 0 0 0 0 0 0 0 0 0 0 0 0 0 0 0 0 0 0 0 0
0 0 0 0 0 0 0 0 0 0 0 0 0 0 0 0 0 0 0 0 0 0 0 0 0 0 0;
#X coords 0 1 500 -1 200 140 1;
#X restore 404 147 graph;
#X obj 195 187 inlet;
#X obj 195 210 delread~ delaysound 1000;
#X obj 195 233 outlet~;
#X obj 143 256 delwrite~ delaysound 5000;
#X obj 148 187 inlet;
#X floatatom 148 209 5 0 0 0 - - -, f 5;
#X connect 0 0 5 0;
#X connect 0 0 6 0;
#X connect 1 0 6 0;
#X connect 3 0 4 0;
#X connect 4 0 1 0;
#X connect 4 0 5 0;
#X connect 7 0 1 1;
#X connect 7 0 8 0;
#X restore 194 188 pd echo;
#X obj 120 165 audioroute~;
#X obj 474 188 hsl 150 20 0 1000 0 0 empty empty Delay -2 -8 0 10 -262144
-1 -1 11175 1;
#X obj 611 170 tgl 15 0 empty empty empty 17 7 0 10 -262144 -1 -1 0
1;
#X obj 474 223 hsl 150 20 0 0.5 0 0 empty empty Intensity -2 -8 0 10
-262144 -1 -1 14900 1;
#X obj 644 153 receive delay_activate;
#X obj 322 171 receive delay_value;
#X obj 294 206 receive delay_intensity;
#X connect 0 0 9 0;
#X connect 1 0 15 0;
#X connect 2 0 1 1;
#X connect 3 0 2 0;
#X connect 4 0 5 0;
#X connect 5 0 0 1;
#X connect 8 0 12 0;
#X connect 10 0 16 1;
#X connect 11 0 15 1;
#X connect 12 0 18 0;
#X connect 13 0 10 0;
#X connect 14 0 11 0;
#X connect 15 0 9 0;
#X connect 15 1 0 0;
#X connect 16 0 15 0;
#X connect 16 1 1 0;
#X connect 17 0 16 0;
#X connect 18 0 16 0;
#X connect 18 1 17 0;
#X connect 19 0 17 2;
#X connect 20 0 18 1;
#X connect 21 0 17 1;
#X connect 22 0 20 0;
#X connect 23 0 19 0;
#X connect 24 0 21 0;
#X coords 0 -1 1 1 180 210 1 460 150;
#X restore 416 194 pd microphone;
#X obj 416 154 adc~;
#N canvas 165 90 665 191 signal 0;
#N canvas 0 50 450 250 (subpatch) 0;
#X array Signal 100 float 5;
#A 0 -0.000180336 -0.000158523 -0.000222653 -0.000292935 -0.00032601
-0.000303219 -0.000332306 -0.000282069 -0.000269143 -0.000286615 -0.000255376
-0.000154908 -0.000169972 -0.00025475 -0.000153527 -0.000176582 -0.000151077
-0.000118619 -3.26419e-05 1.04617e-05 -9.34457e-05 -0.000195718 -0.000349631
-0.00043046 -0.000411192 -0.000447703 -0.000392559 -0.000483056 -0.000425121
-0.000369398 -0.000511952 -0.000335933 -0.000284006 -0.00027782 -0.000168861
-0.000173203 -0.000126817 -6.97109e-05 -8.49246e-05 -0.000145286 -0.000322743
-0.000353869 -0.000291191 -0.000255853 -0.000144312 -7.78672e-05 -0.00012929
-0.000233984 -0.000172834 -3.81651e-05 6.99673e-05 0.000101522 4.23603e-05
-9.62288e-06 1.57418e-05 0.00011165 0.000158162 0.000225122 0.000239679
0.000176256 0.000144202 0.000180277 0.000222376 0.000289836 0.000353285
0.000449087 0.000396056 0.000193266 0.00025449 0.000267216 0.000215138
0.000373335 0.000432775 0.000485686 0.00051004 0.000529915 0.000634147
0.000558098 0.000604388 0.000676276 0.000592994 0.000562748 0.000525405
0.000605411 0.000623855 0.000565002 0.000615941 0.00047419 0.00025865
0.000135899 9.7824e-05 0.000267788 0.000366493 0.000286697 0.000255918
0.000129983 0.000145115 0.000205974 0.000270862 0.000334403;
#X coords 0 1 99 -1 200 140 2 0 0;
#X restore 100 40 graph;
#X obj 481 88 metro 40;
#X obj 481 52 receive visualization;
#X obj 336 106 tabwrite~ Signal;
#X obj 336 76 inlet~;
#X connect 1 0 3 0;
#X connect 2 0 1 0;
#X connect 4 0 3 0;
#X coords 0 -1 1 1 200 180 1 100 0;
#X restore 615 337 pd signal;
#N canvas 292 220 962 689 soundboard 0;
#X obj 448 282 readsf~;
#X msg 463 256 start;
#X msg 118 609 open sounds/retard.wav;
#X obj 448 318 outlet~;
#X obj 118 572 moses 2;
#X obj 66 553 nbx 5 14 -1e+37 1e+37 0 0 empty empty empty 0 -8 0 10
-262144 -1 -1 0 256;
#X msg 264 609 open sounds/taisez-vous.wav;
#X obj 264 571 moses 3;
#X obj 446 571 moses 4;
#X msg 446 609 open sounds/cotorep.wav;
#X msg 620 609 open sounds/balec.wav;
#X obj 524 572 moses 12;
#X obj 614 570 moses 13;
#X msg 780 609 open sounds/dramatic.wav;
#X obj 699 569 moses 14;
#X obj 780 572 moses 15;
#X obj 89 180 bng 30 250 50 0 empty empty empty 17 7 0 10 -262144 -1
-1;
#X obj 66 528 receive message;
#X obj 21 42 nbx 5 14 -1e+37 1e+37 0 0 empty empty empty 0 -8 0 10
-262144 -1 -1 0 256;
#X obj 229 59 moses 12;
#X obj 229 81 moses 13;
#X obj 229 103 moses 14;
#X obj 229 124 moses 15;
#X obj 21 59 moses 0;
#X obj 21 19 receive soundboard;
#X obj 70 124 moses 16;
#X obj 174 124 moses 17;
#X obj 125 124 moses 1;
#X obj 70 59 moses 2;
#X obj 125 59 moses 3;
#X obj 174 59 moses 4;
#X obj 71 81 moses 5;
#X obj 126 81 moses 6;
#X obj 175 81 moses 7;
#X obj 70 103 moses 8;
#X obj 125 103 moses 9;
#X obj 174 103 moses 10;
#X obj 88 474 send message;
#X obj 180 180 bng 30 250 50 0 empty empty empty 17 7 0 10 -262144
-1 -1;
#X obj 276 180 bng 30 250 50 0 empty empty empty 17 7 0 10 -262144
-1 -1;
#X obj 369 180 bng 30 250 50 0 empty empty empty 17 7 0 10 -262144
-1 -1;
#X text 380 185 A;
#X obj 89 254 bng 30 250 50 0 empty empty empty 17 7 0 10 -262144 -1
-1;
#X obj 180 254 bng 30 250 50 0 empty empty empty 17 7 0 10 -262144
-1 -1;
#X obj 276 254 bng 30 250 50 0 empty empty empty 17 7 0 10 -262144
-1 -1;
#X obj 369 254 bng 30 250 50 0 empty empty empty 17 7 0 10 -262144
-1 -1;
#X obj 89 330 bng 30 250 50 0 empty empty empty 17 7 0 10 -262144 -1
-1;
#X obj 180 330 bng 30 250 50 0 empty empty empty 17 7 0 10 -262144
-1 -1;
#X obj 276 330 bng 30 250 50 0 empty empty empty 17 7 0 10 -262144
-1 -1;
#X obj 369 330 bng 30 250 50 0 empty empty empty 17 7 0 10 -262144
-1 -1;
#X obj 89 402 bng 30 250 50 0 empty empty empty 17 7 0 10 -262144 -1
-1;
#X obj 180 402 bng 30 250 50 0 empty empty empty 17 7 0 10 -262144
-1 -1;
#X obj 276 402 bng 30 250 50 0 empty empty empty 17 7 0 10 -262144
-1 -1;
#X obj 369 402 bng 30 250 50 0 empty empty empty 17 7 0 10 -262144
-1 -1;
#X text 100 185 1;
#X text 191 185 2;
#X text 287 185 3;
#X text 100 259 4;
#X text 191 259 5;
#X text 287 259 6;
#X text 100 335 7;
#X text 191 335 8;
#X text 287 335 9;
#X text 100 407 *;
#X text 191 407 0;
#X text 287 407 #;
#X text 380 259 B;
#X text 380 335 C;
#X text 380 407 D;
#X text 164 164 Taisez-vous;
#X text 266 163 Cotoreps;
#X text 84 164 Alerte;
#X text 367 237 Balec;
#X text 367 386 Drama;
#X msg 89 215 1;
#X msg 180 215 2;
#X msg 276 215 3;
#X msg 89 289 4;
#X msg 180 289 5;
#X msg 276 289 6;
#X msg 89 365 7;
#X msg 180 365 8;
#X msg 276 365 9;
#X msg 180 437 0;
#X msg 369 215 11;
#X msg 369 289 12;
#X msg 369 365 13;
#X msg 369 437 14;
#X msg 89 437 15;
#X msg 276 437 16;
#X obj 66 572 moses 1;
#X obj 448 232 receive wav_sound;
#X obj 118 635 send wav_sound;
#X obj 264 634 send wav_sound;
#X obj 446 634 send wav_sound;
#X obj 620 635 send wav_sound;
#X obj 778 636 send wav_sound;
#X connect 0 0 3 0;
#X connect 1 0 0 0;
#X connect 2 0 92 0;
#X connect 4 0 2 0;
#X connect 4 1 7 0;
#X connect 5 0 90 0;
#X connect 6 0 93 0;
#X connect 7 0 6 0;
#X connect 7 1 8 0;
#X connect 8 0 9 0;
#X connect 8 1 11 0;
#X connect 9 0 94 0;
#X connect 10 0 95 0;
#X connect 11 1 12 0;
#X connect 12 0 10 0;
#X connect 12 1 14 0;
#X connect 13 0 96 0;
#X connect 14 1 15 0;
#X connect 15 0 13 0;
#X connect 16 0 74 0;
#X connect 17 0 5 0;
#X connect 18 0 23 0;
#X connect 19 0 40 0;
#X connect 19 1 20 0;
#X connect 20 0 45 0;
#X connect 20 1 21 0;
#X connect 21 0 49 0;
#X connect 21 1 22 0;
#X connect 22 0 53 0;
#X connect 22 1 25 0;
#X connect 23 1 27 0;
#X connect 24 0 18 0;
#X connect 25 0 50 0;
#X connect 25 1 26 0;
#X connect 26 0 52 0;
#X connect 27 0 51 0;
#X connect 27 1 28 0;
#X connect 28 0 16 0;
#X connect 28 1 29 0;
#X connect 29 0 38 0;
#X connect 29 1 30 0;
#X connect 30 0 39 0;
#X connect 30 1 31 0;
#X connect 31 0 42 0;
#X connect 31 1 32 0;
#X connect 32 0 43 0;
#X connect 32 1 33 0;
#X connect 33 0 44 0;
#X connect 33 1 34 0;
#X connect 34 0 46 0;
#X connect 34 1 35 0;
#X connect 35 0 47 0;
#X connect 35 1 36 0;
#X connect 36 0 48 0;
#X connect 36 1 19 0;
#X connect 38 0 75 0;
#X connect 39 0 76 0;
#X connect 40 0 84 0;
#X connect 42 0 77 0;
#X connect 43 0 78 0;
#X connect 44 0 79 0;
#X connect 45 0 85 0;
#X connect 46 0 80 0;
#X connect 47 0 81 0;
#X connect 48 0 82 0;
#X connect 49 0 86 0;
#X connect 50 0 88 0;
#X connect 51 0 83 0;
#X connect 52 0 89 0;
#X connect 53 0 87 0;
#X connect 74 0 37 0;
#X connect 75 0 37 0;
#X connect 76 0 37 0;
#X connect 77 0 37 0;
#X connect 78 0 37 0;
#X connect 79 0 37 0;
#X connect 80 0 37 0;
#X connect 81 0 37 0;
#X connect 82 0 37 0;
#X connect 83 0 37 0;
#X connect 84 0 37 0;
#X connect 85 0 37 0;
#X connect 86 0 37 0;
#X connect 87 0 37 0;
#X connect 88 0 37 0;
#X connect 89 0 37 0;
#X connect 90 1 4 0;
#X connect 91 0 0 0;
#X connect 91 0 1 0;
#X coords 0 -1 1 1 370 300 1 70 140;
#X restore 34 194 pd soundboard;
#X obj 661 316 dac~ 3 4;
#X obj 624 316 dac~;
#X obj 614 4 loadbang;
#X obj 34 499 send~ soundboard_signal;
#X obj 416 411 send~ microphone_signal;
#X obj 614 208 receive~ soundboard_signal;
#X obj 620 229 receive~ microphone_signal;
#X obj 614 249 send~ final_sound;
#X obj 614 275 receive~ final_sound;
#N canvas 271 282 1041 300 arduino 0;
#X obj 70 72 comport 3 9600;
#X obj 70 47 receive arduino;
#X obj 616 188 outlet;
#X obj 454 175 outlet;
#X obj 72 168 outlet;
#X text 101 264 soundboard;
#X text 230 264 reverb;
#X text 361 264 pitch;
#X floatatom 102 251 5 0 0 0 - - -, f 5;
#X floatatom 235 251 5 0 0 0 - - -, f 5;
#X floatatom 362 251 5 0 0 0 - - -, f 5;
#X obj 39 25 inlet;
#X obj 616 154 / 10;
#X obj 616 111 - 201;
#X obj 454 94 moses 151;
#X obj 454 126 expr ($f1 - 50) / 100;
#X obj 147 138 send reverb_activate;
#X obj 301 138 send pitch_activate;
#X obj 70 94 moses 20;
#X obj 147 94 moses 22;
#X obj 223 94 moses 30;
#X obj 301 94 moses 32;
#X obj 301 116 expr 1 - (31 - $f1);
#X obj 147 116 expr 1 - (21 - $f1);
#X connect 0 0 18 0;
#X connect 1 0 0 0;
#X connect 11 0 18 0;
#X connect 12 0 2 0;
#X connect 12 0 10 0;
#X connect 13 0 12 0;
#X connect 14 0 15 0;
#X connect 14 1 13 0;
#X connect 15 0 3 0;
#X connect 15 0 9 0;
#X connect 18 0 4 0;
#X connect 18 0 8 0;
#X connect 18 1 19 0;
#X connect 19 0 23 0;
#X connect 19 1 20 0;
#X connect 20 1 21 0;
#X connect 21 0 22 0;
#X connect 21 1 14 0;
#X connect 22 0 17 0;
#X connect 23 0 16 0;
#X coords 0 -1 1 1 300 50 1 100 230;
#X restore 168 50 pd arduino;
#X obj 314 106 send reverb;
#X obj 168 106 send soundboard;
#X obj 460 106 send pitch;
#X floatatom 168 29 5 0 0 0 - - -, f 5;
#X msg 614 28 \; pd dsp 1 \; arduino open 3 \; visualization bang \;
noise_detect 60 \; delay_activate 0 \; delay_value 750 \; delay_intensity
0.5 \; reverb 0.25 \; reverb_activate 0 \; reverb_value roomsize 1
\; pitch 0 \; pitch_activate 0 \;, f 25;
#X connect 0 0 8 0;
#X connect 1 0 0 0;
#X connect 1 1 0 0;
#X connect 3 0 7 0;
#X connect 6 0 18 0;
#X connect 9 0 11 0;
#X connect 10 0 11 0;
#X connect 12 0 4 0;
#X connect 12 0 4 1;
#X connect 12 0 2 0;
#X connect 12 0 5 0;
#X connect 12 0 5 1;
#X connect 13 0 15 0;
#X connect 13 1 14 0;
#X connect 13 2 16 0;
#X connect 17 0 13 0;
